<svg xmlns="http://www.w3.org/2000/svg" width="512" height="512"><path d="M256 50c-93.061 0-168.5 75.44-168.5 168.5 0 94.5 81.93 156.833 168.5 243.5 86.57-86.667 168.5-149 168.5-243.5 0-93.06-75.439-168.5-168.5-168.5zm0 286.958c-68.275 0-123.624-55.349-123.624-123.624 0-68.276 55.349-123.624 123.624-123.624 68.276 0 123.625 55.348 123.625 123.624 0 68.275-55.349 123.624-123.625 123.624zm70.908-103.707h-50.434v50.434h-38.949v-50.434h-50.434v-38.948h50.434v-50.436h38.949v50.436h50.434v38.948z"/></svg>